{"title":"Good Burger [1997] French x264","uid":12494968,"size":650483402,"categoryP":"video","categoryS":"movies","magnet":"?xt=urn:btih:1b9d28b5fb0a039ad8e362287e458f228406dd49&amp;dn=Good+Burger+%5B1997%5D+French+x264&amp;tr=udp%3A%2F%2Ftracker.leechers-paradise.org%3A6969&amp;tr=udp%3A%2F%2Fzer0day.ch%3A1337&amp;tr=udp%3A%2F%2Fopen.demonii.com%3A1337&amp;tr=udp%3A%2F%2Ftracker.coppersurfer.tk%3A6969&amp;tr=udp%3A%2F%2Fexodus.desync.com%3A6969","seeders":0,"leechers":0,"uploader":null,"files":1,"time":1443244248,"description":"Format                                   : MPEG-4\r\nFormat profile                           : Base Media / Version 2\r\nCodec ID                                 : mp42\r\nFile size                                : 620 MiB\r\nDuration                                 : 1h 35mn\r\nOverall bit rate mode                    : Variable\r\nOverall bit rate                         : 910 Kbps\r\n\r\nVideo\r\nID                                       : 1\r\nFormat                                   : AVC\r\nFormat/Info                              : Advanced Video Codec\r\nFormat profile                           :   \r\nFormat settings, CABAC                   : Yes\r\nFormat settings, ReFrames                : 4 frames\r\nCodec ID                                 : avc1\r\nCodec ID/Info                            : Advanced Video Coding\r\nDuration                                 : 1h 35mn\r\nBit rate                                 : 800 Kbps\r\nWidth                                    : 720 pixels\r\nHeight                                   : 480 pixels\r\nDisplay aspect ratio                     : 16:9\r\nOriginal display aspect ratio            : 16:9\r\nFrame rate mode                          : Variable\r\nFrame rate                               : 23.976 fps\r\nMinimum frame rate                       : 9.792 fps\r\nMaximum frame rate                       : 46.656 fps\r\nColor space                              : YUV\r\nChroma subsampling                       : 4:2:0\r\nBit depth                                : 8 bits\r\nScan type                                : Progressive\r\nBits/(Pixel*Frame)                       : 0.097\r\nStream size                              : 545 MiB (88%)\r\nWriting library                          : x264 core 142 r2479 dd79a61\r\nEncoding settings                        : cabac=1 / ref=3 / deblock=1:0:0 / analyse=0x1:0x111 / me=hex / subme=7 / psy=1 / psy_rd=1.00:0.00 / mixed_ref=1 / me_range=16 / chroma_me=1 / trellis=1 / 8x8dct=0 / cqm=0 / deadzone=21,11 / fast_pskip=1 / chroma_qp_offset=-2 / threads=6 / lookahead_threads=1 / sliced_threads=0 / nr=0 / decimate=1 / interlaced=0 / bluray_compat=0 / constrained_intra=0 / bframes=3 / b_pyramid=2 / b_adapt=1 / b_bias=0 / direct=1 / weightb=1 / open_gop=0 / weightp=2 / keyint=240 / keyint_min=24 / scenecut=40 / intra_refresh=0 / rc_lookahead=40 / rc=2pass / mbtree=1 / bitrate=800 / ratetol=1.0 / qcomp=0.60 / qpmin=0 / qpmax=69 / qpstep=4 / cplxblur=20.0 / qblur=0.5 / ip_ratio=1.40 / aq=1:1.00\r\nColor range                              : Limited\r\nColor primaries                          : BT.601 NTSC\r\nTransfer characteristics                 : BT.709\r\nMatrix coefficients                      : BT.601\r\n\r\nAudio\r\nID                                       : 2\r\nFormat                                   : AAC\r\nFormat/Info                              : Advanced Audio Codec\r\nFormat profile                           : LC\r\nCodec ID                                 : 40\r\nDuration                                 : 1h 35mn\r\nBit rate mode                            : Variable\r\nBit rate                                 : 96.0 Kbps\r\nChannel(s)                               : 2 channels\r\nChannel positions                        : Front: L R\r\nSampling rate                            : 48.0 KHz\r\nCompression mode                         : Lossy\r\nStream size                              : 65.5 MiB (11%)\r\nTitle                                    : Stereo / Stereo\r\nLanguage                                 : French\r\n\r\nText #1\r\nID                                       : 3\r\nFormat                                   : mp4s\r\nCodec ID                                 : E0\r\nDuration                                 : 1h 35mn\r\nBit rate mode                            : Variable\r\nBit rate                                 : 6 654 bps\r\nStream size                              : 4.53 MiB (1%)\r\nLanguage                                 : English\r\n\r\nText #2\r\nID                                       : 4\r\nFormat                                   : Timed Text\r\nMuxing mode                              : sbtl\r\nCodec ID                                 : tx3g\r\nDuration                                 : 1h 35mn\r\nBit rate mode                            : Variable\r\nBit rate                                 : 107 bps\r\nStream size                              : 74.5 KiB (0%)\r\nLanguage                                 : English\r\n\r\nMenu\r\nID                                       : 5\r\nCodec ID                                 : text\r\nDuration                                 : 1h 35mn\r\nLanguage                                 : English\r\n00:00:00.000                             : Chapter 1\r\n00:05:59.175                             : Chapter 2\r\n00:08:59.224                             : Chapter 3\r\n00:12:17.474                             : Chapter 4\r\n00:16:40.757                             : Chapter 5\r\n00:19:31.367                             : Chapter 6\r\n00:24:21.090                             : Chapter 7\r\n00:30:03.317                             : Chapter 8\r\n00:33:55.434                             : Chapter 9\r\n00:37:21.326                             : Chapter 10\r\n00:39:41.336                             : Chapter 11\r\n00:45:59.582                             : Chapter 12\r\n00:55:37.545                             : Chapter 13\r\n00:59:30.432                             : Chapter 14\r\n01:02:36.654                             : Chapter 15\r\n01:05:38.871                             : Chapter 16\r\n01:08:08.072                             : Chapter 17\r\n01:13:56.408                             : Chapter 18\r\n01:19:04.752                             : Chapter 19\r\n01:24:21.271                             : Chapter 20\r\nBit rate mode                            : VBR","torrent":{"xt":"urn:btih:1b9d28b5fb0a039ad8e362287e458f228406dd49","amp;dn":"Good+Burger+%5B1997%5D+French+x264","amp;tr":["udp%3A%2F%2Ftracker.leechers-paradise.org%3A6969","udp%3A%2F%2Fzer0day.ch%3A1337","udp%3A%2F%2Fopen.demonii.com%3A1337","udp%3A%2F%2Ftracker.coppersurfer.tk%3A6969","udp%3A%2F%2Fexodus.desync.com%3A6969"],"infoHash":"1b9d28b5fb0a039ad8e362287e458f228406dd49","infoHashBuffer":{"type":"Buffer","data":[27,157,40,181,251,10,3,154,216,227,98,40,126,69,143,34,132,6,221,73]},"announce":[],"urlList":[]}}